<?xml version="1.0" encoding="UTF-8" standalone="no"?>
<!-- Created with Inkscape (http://www.inkscape.org/) -->

<svg
   width="32.951195mm"
   height="39.188721mm"
   viewBox="0 0 32.951195 39.188721"
   version="1.1"
   id="svg180"
   xml:space="preserve"
   xmlns:inkscape="http://www.inkscape.org/namespaces/inkscape"
   xmlns:sodipodi="http://sodipodi.sourceforge.net/DTD/sodipodi-0.dtd"
   xmlns="http://www.w3.org/2000/svg"
   xmlns:svg="http://www.w3.org/2000/svg"><sodipodi:namedview
     id="namedview182"
     pagecolor="#ffffff"
     bordercolor="#000000"
     borderopacity="0.25"
     inkscape:showpageshadow="2"
     inkscape:pageopacity="0.0"
     inkscape:pagecheckerboard="0"
     inkscape:deskcolor="#d1d1d1"
     inkscape:document-units="mm"
     showgrid="false" /><defs
     id="defs177" /><g
     inkscape:label="Layer 1"
     inkscape:groupmode="layer"
     id="layer1"
     transform="translate(-82.717066,-119.26483)"><path
       style="fill:#000000;stroke-width:0.264583"
       d="m 91.464146,158.09457 c -2.83308,-1.231 -6.71529,-7.31827 -8.12914,-12.74642 -2.098051,-8.05494 1.29714,-15.14082 7.89962,-16.48676 1.7859,-0.36407 2.55129,-0.25493 5.87923,0.83832 l 2.42364,0.79619 2.940834,-0.95071 2.94083,-0.95071 1.39395,0.003 c 2.75726,0.006 5.52187,1.13265 7.2859,2.96863 l 0.86487,0.90014 -1.16881,0.83938 c -4.73922,3.40345 -4.33131,10.76627 0.77519,13.99234 1.43845,0.90875 1.4458,1.1222 0.12643,3.67181 -3.53636,6.83385 -6.06269,8.33564 -11.28573,6.70888 l -2.61223,-0.8136 -1.322924,0.15043 c -0.7276,0.0827 -2.15635,0.44635 -3.175,0.80802 -2.0885,0.74153 -3.56344,0.82415 -4.83666,0.27092 z m 7.93023,-30.90351 c 0.29549,-3.56327 3.697604,-7.20351 7.274834,-7.78401 l 0.8764,-0.14222 -2.1e-4,1.29139 -2.1e-4,1.29139 -0.76322,1.5875 c -1.32735,2.76092 -4.37813,5.13903 -6.61132,5.15356 l -0.892664,0.006 z"
       id="path217" /></g></svg>
